<?xml version="1.0" encoding="UTF-8" standalone="no"?>
<!DOCTYPE svg PUBLIC "-//W3C//DTD SVG 1.1//EN" "http://www.w3.org/Graphics/SVG/1.1/DTD/svg11.dtd">
<svg width="100%" height="100%" viewBox="0 0 150 300" version="1.1" xmlns="http://www.w3.org/2000/svg" xmlns:xlink="http://www.w3.org/1999/xlink" xml:space="preserve" xmlns:serif="http://www.serif.com/" style="fill-rule:evenodd;clip-rule:evenodd;stroke-linejoin:round;stroke-miterlimit:2;">
    <g transform="matrix(0.650686,0,0,0.813947,-505.665,-307.529)">
        <path d="M988.217,714.982C988.217,725.752 946.02,734.483 893.966,734.483C841.913,734.483 799.715,725.752 799.715,714.982C799.715,704.213 841.913,695.482 893.966,695.482C946.02,695.482 988.217,704.213 988.217,714.982Z" style="fill:url(#_Radial1);fill-rule:nonzero;"/>
    </g>
    <g transform="matrix(0.813947,0,0,0.813947,-653.615,-301.529)">
        <path d="M830.882,545.242C836.687,569.563 954.545,560.909 958.042,544.084C961.037,529.672 958.374,505.845 950.452,500.582C946.51,497.963 932.317,494.315 922.855,493.475C909.263,492.269 881.859,491.869 868.901,493.344C860.479,494.303 842.9,496.506 838.384,502.052C829.699,512.72 827.88,532.666 830.882,545.242Z" style="fill:rgb(161,161,118);fill-rule:nonzero;"/>
    </g>
    <g transform="matrix(0.813947,0,0,0.813947,-653.615,-301.529)">
        <path d="M922.07,499.235C922.565,498.542 922.8,496.437 922.855,493.475C923.008,485.26 921.778,470.451 920.873,460.854C905.606,457.564 883.115,459.015 869.609,459.814C869.334,467.829 868.84,483.734 868.901,493.344C868.925,497.027 869.029,499.786 869.259,500.819C870.315,505.572 906.575,520.927 922.07,499.235Z" style="fill:url(#_Linear2);fill-rule:nonzero;"/>
    </g>
    <g transform="matrix(0.813947,0,0,0.813947,-653.615,-301.529)">
        <path d="M920.873,460.854C925.788,459.907 929.614,458.741 931.575,457.515C940.025,452.234 938.441,441.671 934.744,436.39C932.62,433.357 925.135,430.488 919.708,429.905C909.12,428.768 882.174,427.962 871.213,429.571C864.634,430.537 855.858,435.348 853.944,439.559C851.303,445.368 851.702,450.527 862.922,456.987C864.86,458.103 867.126,459.033 869.609,459.814C884.271,464.427 906.971,463.532 920.873,460.854Z" style="fill:rgb(161,161,118);fill-rule:nonzero;"/>
    </g>
    <g transform="matrix(0.813947,0,0,0.813947,-653.615,-301.529)">
        <path d="M915.204,448.009C917.887,445.147 917.693,433.634 918.226,425.494C919.266,409.595 920.122,402.113 918.901,394.142C907.449,390.199 882.502,389.937 868.776,395.842C867.769,404.874 870.237,416.45 871.213,429.571C871.77,437.054 872.249,443.235 872.428,444.84C872.956,449.593 907.283,456.458 915.204,448.009Z" style="fill:url(#_Linear3);fill-rule:nonzero;"/>
    </g>
    <g transform="matrix(0.813947,0,0,0.813947,-653.615,-301.529)">
        <path d="M918.901,394.142C918.901,382.524 869.787,379.355 868.731,395.198C868.716,395.418 868.738,395.631 868.776,395.842C870.415,404.78 918.901,405.493 918.901,394.142Z" style="fill:rgb(227,179,93);fill-rule:nonzero;"/>
    </g>
    <g transform="matrix(0.813947,0,0,0.813947,-653.615,-301.529)">
        <path d="M939.779,630.687C944.886,611.63 957.299,569.036 958.042,544.084C958.203,538.659 957.816,534.064 956.678,530.73C950.31,512.063 855.895,512.948 836.303,527.022C832.236,529.944 830.524,534.656 830.383,540.512C829.863,562.193 850.962,599.607 854.542,620.382C859.088,646.768 805.322,684.135 830.827,707.027C856.333,729.919 952.92,727.387 964.41,703.881C975.9,680.376 933.561,653.888 939.779,630.687Z" style="fill:url(#_Linear4);"/>
    </g>
    <g transform="matrix(0.813947,0,0,0.813947,-653.615,-301.529)">
        <path d="M893.376,558.774C893.376,562.471 890.379,565.467 886.683,565.467C882.986,565.467 879.99,562.471 879.99,558.774C879.99,555.078 882.986,552.081 886.683,552.081C890.379,552.081 893.376,555.078 893.376,558.774ZM903.043,552.453C906.123,552.453 908.62,554.95 908.62,558.031C908.62,561.111 906.123,563.608 903.043,563.608C899.963,563.608 897.466,561.111 897.466,558.031C897.466,554.95 899.963,552.453 903.043,552.453ZM899,574.446C896.96,576.485 894.581,575.126 892.541,574.446C890.502,573.766 891.88,567.388 894.921,566.627C896.281,566.287 901.04,572.406 899,574.446ZM874.412,563.98C874.784,572.904 886.683,578.481 886.683,578.481C886.683,578.481 884.452,581.456 887.055,583.687C889.286,585.6 891.79,582.047 892.458,580.995C891.967,581.869 890.841,584.493 894.863,584.802C897.647,585.016 898.331,583.628 898.413,582.412C898.802,583.736 899.908,585.178 903.043,584.058C908.249,582.199 905.646,576.25 905.646,576.25C905.646,576.25 917.173,572.904 914.198,552.081C911.223,531.259 903.043,537.58 892.26,537.952C871.808,538.657 874.041,555.056 874.412,563.98Z" style="fill:white;fill-rule:nonzero;"/>
    </g>
    <g transform="matrix(0.813947,0,0,0.813947,-653.615,-301.529)">
        <path d="M924.981,592.982C929.443,588.892 923.494,584.43 923.494,584.43C923.494,584.43 924.981,575.506 917.544,576.994C910.108,578.481 911.595,585.918 911.595,585.918L897.198,594.316L882.801,585.918C882.801,585.918 884.288,578.481 876.852,576.994C869.415,575.506 870.903,584.43 870.903,584.43C870.903,584.43 864.953,588.892 869.415,592.982C873.877,597.072 880.57,594.098 880.57,594.098C882.818,594.435 886.46,596.1 890.445,598.255L880.362,604.137C880.362,604.137 875.528,598.932 870.694,602.278C865.86,605.624 867.348,611.945 872.553,613.061C872.553,613.061 872.925,621.613 880.362,620.126C887.798,618.638 883.708,610.83 883.708,610.83C883.708,610.83 890.093,606.434 897.198,602.14C904.303,606.434 910.688,610.83 910.688,610.83C910.688,610.83 906.598,618.638 914.034,620.126C921.471,621.613 921.843,613.061 921.843,613.061C927.048,611.945 928.536,605.624 923.702,602.278C918.868,598.932 914.034,604.137 914.034,604.137L903.951,598.255C907.936,596.1 911.579,594.435 913.826,594.098C913.826,594.098 920.519,597.072 924.981,592.982Z" style="fill:white;fill-rule:nonzero;"/>
    </g>
    <defs>
        <radialGradient id="_Radial1" cx="0" cy="0" r="1" gradientUnits="userSpaceOnUse" gradientTransform="matrix(94.251,0,0,19.5005,893.966,714.983)"><stop offset="0" style="stop-color:black;stop-opacity:0.56"/><stop offset="0.78" style="stop-color:black;stop-opacity:0.56"/><stop offset="1" style="stop-color:white;stop-opacity:0.56"/></radialGradient>
        <linearGradient id="_Linear2" x1="0" y1="0" x2="1" y2="0" gradientUnits="userSpaceOnUse" gradientTransform="matrix(58.9325,24.0149,-23.0216,56.495,869.418,465.43)"><stop offset="0" style="stop-color:rgb(136,136,93);stop-opacity:1"/><stop offset="0.5" style="stop-color:rgb(95,95,76);stop-opacity:1"/><stop offset="1" style="stop-color:rgb(76,76,61);stop-opacity:1"/></linearGradient>
        <linearGradient id="_Linear3" x1="0" y1="0" x2="1" y2="0" gradientUnits="userSpaceOnUse" gradientTransform="matrix(50.7274,35.4791,-42.2744,60.4432,870.154,403.532)"><stop offset="0" style="stop-color:rgb(191,117,13);stop-opacity:1"/><stop offset="0.5" style="stop-color:rgb(147,91,11);stop-opacity:1"/><stop offset="1" style="stop-color:rgb(107,65,8);stop-opacity:1"/></linearGradient>
        <linearGradient id="_Linear4" x1="0" y1="0" x2="1" y2="0" gradientUnits="userSpaceOnUse" gradientTransform="matrix(108.965,202.916,-293.89,157.818,841.367,517.623)"><stop offset="0" style="stop-color:rgb(136,136,93);stop-opacity:1"/><stop offset="0.5" style="stop-color:rgb(95,95,76);stop-opacity:1"/><stop offset="1" style="stop-color:rgb(76,76,61);stop-opacity:1"/></linearGradient>
    </defs>
</svg>
