<svg width="100%" height="100%" viewBox="0 0 150 300" version="1.1"
	xmlns="http://www.w3.org/2000/svg" style="fill-rule:evenodd;clip-rule:evenodd;stroke-linejoin:round;stroke-miterlimit:2;">
	<g>
		<path d="M137.354,274.428C137.354,283.195 109.897,290.301 76.026,290.301C42.156,290.301 14.698,283.195 14.698,274.428C14.698,265.663 42.156,258.556 76.026,258.556C109.897,258.556 137.354,265.663 137.354,274.428Z" style="fill:url(#_Radial1);fill-rule:nonzero;"/>
	</g>
	<g>
		<path d="M22.679,142.269C27.404,162.065 123.334,155.021 126.18,141.327C128.618,129.596 126.451,110.202 120.003,105.918C116.794,103.786 105.242,100.817 97.54,100.133C86.477,99.152 64.171,98.826 53.624,100.027C46.769,100.807 32.461,102.601 28.785,107.115C21.716,115.798 20.235,132.033 22.679,142.269Z" style="fill:rgb(161,161,118);fill-rule:nonzero;"/>
	</g>
	<g>
		<path d="M96.901,104.822C97.304,104.258 97.495,102.544 97.54,100.133C97.665,93.447 96.663,81.393 95.927,73.582C83.5,70.904 65.194,72.085 54.201,72.735C53.977,79.259 53.575,92.205 53.624,100.027C53.644,103.025 53.729,105.27 53.916,106.111C54.775,109.98 84.289,122.478 96.901,104.822Z" style="fill:url(#_Linear2);fill-rule:nonzero;"/>
	</g>
	<g>
		<path d="M95.927,73.582C99.927,72.811 103.042,71.862 104.638,70.864C111.516,66.566 110.226,57.968 107.217,53.669C105.488,51.201 99.396,48.865 94.979,48.391C86.36,47.465 64.428,46.809 55.506,48.119C50.151,48.905 43.008,52.821 41.45,56.249C39.301,60.977 39.625,65.176 48.758,70.434C50.335,71.343 52.18,72.1 54.201,72.735C66.135,76.49 84.611,75.761 95.927,73.582Z" style="fill:rgb(161,161,118);fill-rule:nonzero;"/>
	</g>
	<g>
		<path d="M91.313,63.127C93.496,60.797 93.338,51.426 93.772,44.801C94.619,31.86 95.316,25.77 94.322,19.282C85,16.072 64.695,15.859 53.523,20.665C52.703,28.017 54.712,37.439 55.506,48.119C55.96,54.21 56.349,59.241 56.495,60.547C56.925,64.416 84.865,70.004 91.313,63.127Z" style="fill:url(#_Linear3);fill-rule:nonzero;"/>
	</g>
	<g>
		<path d="M94.322,19.282C94.322,9.825 54.346,7.246 53.486,20.141C53.474,20.32 53.492,20.494 53.523,20.665C54.857,27.94 94.322,28.521 94.322,19.282Z" style="fill:rgb(227,179,93);fill-rule:nonzero;"/>
	</g>
	<g>
		<path d="M111.315,211.817C115.472,196.305 125.576,161.636 126.18,141.327C126.311,136.911 125.996,133.171 125.07,130.457C119.887,115.263 43.038,115.983 27.091,127.439C23.781,129.817 22.388,133.653 22.273,138.419C21.849,156.066 39.023,186.519 41.937,203.429C45.637,224.906 1.874,255.321 22.634,273.954C43.395,292.586 122.011,290.525 131.364,271.393C140.716,252.261 106.254,230.701 111.315,211.817Z" style="fill:url(#_Linear4);"/>
	</g>
	<g>
		<path d="M73.546,153.283C73.546,156.293 71.106,158.731 68.098,158.731C65.089,158.731 62.65,156.293 62.65,153.283C62.65,150.275 65.089,147.836 68.098,147.836C71.106,147.836 73.546,150.275 73.546,153.283ZM81.414,148.138C83.921,148.138 85.954,150.171 85.954,152.679C85.954,155.186 83.921,157.218 81.414,157.218C78.907,157.218 76.875,155.186 76.875,152.679C76.875,150.171 78.907,148.138 81.414,148.138ZM78.123,166.04C76.463,167.699 74.527,166.593 72.866,166.04C71.206,165.486 72.328,160.295 74.803,159.675C75.91,159.399 79.784,164.379 78.123,166.04ZM58.11,157.521C58.413,164.784 68.098,169.324 68.098,169.324C68.098,169.324 66.282,171.745 68.401,173.561C70.217,175.118 72.255,172.226 72.799,171.37C72.399,172.082 71.482,174.217 74.756,174.469C77.022,174.643 77.579,173.513 77.646,172.524C77.962,173.601 78.862,174.775 81.414,173.863C85.652,172.35 83.533,167.508 83.533,167.508C83.533,167.508 92.915,164.784 90.494,147.836C88.072,130.888 81.414,136.033 72.637,136.335C55.991,136.909 57.808,150.257 58.11,157.521Z" style="fill:white;fill-rule:nonzero;"/>
	</g>
	<g>
		<path d="M99.271,181.127C102.902,177.798 98.06,174.166 98.06,174.166C98.06,174.166 99.271,166.902 93.217,168.114C87.165,169.324 88.375,175.377 88.375,175.377L76.657,182.213L64.938,175.377C64.938,175.377 66.149,169.324 60.096,168.114C54.043,166.902 55.254,174.166 55.254,174.166C55.254,174.166 50.411,177.798 54.043,181.127C57.675,184.456 63.122,182.035 63.122,182.035C64.952,182.31 67.916,183.665 71.16,185.419L62.953,190.206C62.953,190.206 59.018,185.97 55.084,188.693C51.149,191.417 52.36,196.562 56.597,197.47C56.597,197.47 56.9,204.431 62.953,203.221C69.006,202.01 65.676,195.654 65.676,195.654C65.676,195.654 70.874,192.076 76.657,188.581C82.44,192.076 87.637,195.654 87.637,195.654C87.637,195.654 84.308,202.01 90.36,203.221C96.414,204.431 96.716,197.47 96.716,197.47C100.953,196.562 102.164,191.417 98.229,188.693C94.295,185.97 90.36,190.206 90.36,190.206L82.153,185.419C85.397,183.665 88.362,182.31 90.191,182.035C90.191,182.035 95.639,184.456 99.271,181.127Z" style="fill:white;fill-rule:nonzero;"/>
	</g>
	<defs>
		<radialGradient id="_Radial1" cx="0" cy="0" r="1" gradientUnits="userSpaceOnUse" gradientTransform="matrix(61.3278,0,0,15.8724,76.0262,274.429)">
			<stop offset="0" style="stop-color:black;stop-opacity:1"/>
			<stop offset="0.78" style="stop-color:black;stop-opacity:0.64"/>
			<stop offset="1" style="stop-color:black;stop-opacity:0"/>
		</radialGradient>
		<linearGradient id="_Linear2" x1="0" y1="0" x2="1" y2="0" gradientUnits="userSpaceOnUse" gradientTransform="matrix(47.9679,19.5469,-19.5469,47.9679,54.0452,77.3064)">
			<stop offset="0" style="stop-color:rgb(136,136,93);stop-opacity:1"/>
			<stop offset="0.5" style="stop-color:rgb(95,95,76);stop-opacity:1"/>
			<stop offset="1" style="stop-color:rgb(76,76,61);stop-opacity:1"/>
		</linearGradient>
		<linearGradient id="_Linear3" x1="0" y1="0" x2="1" y2="0" gradientUnits="userSpaceOnUse" gradientTransform="matrix(41.2894,28.8781,-28.8781,41.2894,54.6442,26.9247)">
			<stop offset="0" style="stop-color:rgb(191,117,13);stop-opacity:1"/>
			<stop offset="0.5" style="stop-color:rgb(147,91,11);stop-opacity:1"/>
			<stop offset="1" style="stop-color:rgb(107,65,8);stop-opacity:1"/>
		</linearGradient>
		<linearGradient id="_Linear4" x1="0" y1="0" x2="1" y2="0" gradientUnits="userSpaceOnUse" gradientTransform="matrix(88.6917,165.163,-165.163,88.6917,31.2131,119.789)">
			<stop offset="0" style="stop-color:rgb(136,136,93);stop-opacity:1"/>
			<stop offset="0.5" style="stop-color:rgb(95,95,76);stop-opacity:1"/>
			<stop offset="1" style="stop-color:rgb(76,76,61);stop-opacity:1"/>
		</linearGradient>
	</defs>
</svg>
